<?xml version="1.0" encoding="utf-8"?>
<svg viewBox="0 0 500 562" version="1.1" xmlns:xlink="http://www.w3.org/1999/xlink" xmlns="http://www.w3.org/2000/svg">
  <g id="forca" transform="translate(9 14.860977)">
    <path d="M0 538.081C13.5853 538.081 27.5329 536.3 41.177 535.739C77.0355 534.264 113.092 534.489 148.992 534.085C153.911 534.029 158.904 533.931 163.507 532.585C167.384 531.451 175.724 532.585 179.673 532.585C191.308 532.585 202.942 532.585 214.576 532.585C232.55 532.585 250.049 534.311 267.904 535.344C275.617 535.79 283.308 535.46 291.006 535.788C295.001 535.958 299.114 536.008 303.089 536.32C306.153 536.56 309.21 536.834 312.262 537.085C312.514 537.106 315.027 537.577 315.027 537.111" id="Vetor" fill="none" fill-rule="evenodd" stroke="#000000" stroke-width="18" stroke-linecap="round" />
    <path d="M148.454 534.879C148.454 517.336 147.632 499.569 148.763 482.056C150.165 460.329 151.561 438.915 150.629 417.104C148.794 374.131 140.358 331.917 138.739 288.903C137.98 268.746 140.112 249.41 141.494 229.363C142.166 219.6 142.07 209.947 143.093 200.203C144.224 189.436 141.894 178.298 141.23 167.586C139.364 137.488 139.148 107.329 139.148 77.1857C139.148 63.0483 139.224 49.1335 140.306 35.05C140.983 26.2371 140.804 17.3739 141.408 8.54352C141.586 5.93658 141.573 4.80573 141.573 2.69763C141.573 1.25189 141.758 -2.27673 141.802 2.17352C141.81 2.90802 141.802 3.64264 141.802 4.3772" id="Vetor-2" fill="none" fill-rule="evenodd" stroke="#000000" stroke-width="18" />
    <path d="M129.105 11.9447C165.974 11.9447 202.869 9.28501 239.734 10.2128C252.79 10.5414 265.553 13.2805 278.64 13.0753C292.254 12.8618 305.263 9.17112 318.769 8.10502C340.529 6.38723 361.861 7.12816 383.447 7.12816" id="Vetor-3" fill="none" fill-rule="evenodd" stroke="#000000" stroke-width="18" stroke-linecap="round" />
  </g>
  <g id="boneco" transform="translate(348.65527 9)">
    <path d="M88.3859 83.9874C78.0634 83.9874 67.3724 80.7548 57.8672 86.5655C50.3011 91.1907 40.4106 101.12 37.6013 109.701C37.2594 110.746 33.5471 124.241 33.1786 126.58C31.9138 134.604 32.2124 140.361 37.2762 147.565C39.8955 151.291 45.3259 154.563 49.3663 156.532C57.5476 160.518 65.6708 160.73 74.5404 160.73C78.1509 160.73 82.1954 160.799 85.2047 158.439C95.1739 150.622 98.5598 132.21 99.7901 120.511C100.631 112.514 103.925 100.133 101.486 92.1209C98.7873 83.2583 88.3859 83.9874 88.3859 83.9874Z" id="cabeca" fill="#000000" fill-rule="evenodd" stroke="#000000" stroke-width="1" />
    <path d="M50.6332 153.146L76.1003 154.48Q76.5415 154.503 76.9811 154.548Q77.4207 154.593 77.8575 154.659Q78.2944 154.725 78.7274 154.813Q79.1605 154.901 79.5888 155.009Q80.017 155.118 80.4394 155.248Q80.8618 155.378 81.2774 155.528Q81.6929 155.678 82.1005 155.848Q82.5082 156.019 82.907 156.209Q83.3058 156.399 83.6948 156.609Q84.0838 156.818 84.4621 157.047Q84.8403 157.275 85.2069 157.522Q85.5735 157.769 85.9275 158.033Q86.2815 158.297 86.6222 158.579Q86.9628 158.86 87.2892 159.158Q87.6156 159.456 87.927 159.769Q88.2385 160.083 88.5341 160.411Q88.8298 160.739 89.109 161.082Q89.3882 161.424 89.6502 161.78Q89.9122 162.136 90.1565 162.504Q90.4008 162.872 90.6267 163.252Q90.8526 163.632 91.0596 164.022Q91.2666 164.412 91.4542 164.812Q91.6419 165.212 91.8096 165.621Q91.9774 166.03 92.1249 166.446Q92.2724 166.863 92.3992 167.286Q92.5261 167.709 92.6321 168.138Q92.738 168.567 92.8228 169.001Q92.9076 169.435 92.971 169.872Q93.0344 170.309 93.0763 170.749Q93.1181 171.189 93.1384 171.63Q93.1586 172.072 93.1572 172.514Q93.1557 172.955 93.1326 173.397L85.6799 315.604Q85.6567 316.045 85.612 316.484Q85.5672 316.924 85.501 317.361Q85.4347 317.798 85.3471 318.231Q85.2595 318.664 85.1507 319.092Q85.0419 319.52 84.9123 319.943Q84.7826 320.365 84.6324 320.781Q84.4822 321.196 84.3118 321.604Q84.1414 322.011 83.9511 322.41Q83.7609 322.809 83.5514 323.198Q83.3418 323.587 83.1134 323.965Q82.885 324.344 82.6383 324.71Q82.3916 325.077 82.1273 325.431Q81.8629 325.785 81.5815 326.125Q81.3001 326.466 81.0023 326.792Q80.7045 327.119 80.391 327.43Q80.0776 327.742 79.7492 328.037Q79.4208 328.333 79.0784 328.612Q78.7359 328.891 78.3801 329.153Q78.0244 329.415 77.6562 329.66Q77.288 329.904 76.9083 330.13Q76.5286 330.356 76.1382 330.563Q75.7478 330.77 75.3478 330.957Q74.9478 331.145 74.539 331.313Q74.1302 331.481 73.7137 331.628Q73.2972 331.776 72.874 331.902Q72.4507 332.029 72.0218 332.135Q71.5928 332.241 71.1592 332.326Q70.7255 332.411 70.2882 332.474Q69.851 332.538 69.4111 332.579Q68.9713 332.621 68.5299 332.642Q68.0885 332.662 67.6466 332.66Q67.2048 332.659 66.7635 332.636L41.2965 331.301Q40.8552 331.278 40.4157 331.233Q39.9761 331.189 39.5392 331.122Q39.1024 331.056 38.6693 330.968Q38.2362 330.881 37.808 330.772Q37.3797 330.663 36.9573 330.534Q36.5349 330.404 36.1194 330.254Q35.7038 330.103 35.2962 329.933Q34.8885 329.763 34.4897 329.572Q34.0909 329.382 33.7019 329.173Q33.3129 328.963 32.9347 328.735Q32.5564 328.506 32.1898 328.26Q31.8233 328.013 31.4692 327.749Q31.1152 327.484 30.7746 327.203Q30.4339 326.921 30.1075 326.624Q29.7811 326.326 29.4697 326.012Q29.1583 325.699 28.8626 325.37Q28.567 325.042 28.2878 324.7Q28.0086 324.357 27.7465 324.001Q27.4845 323.646 27.2402 323.277Q26.9959 322.909 26.77 322.53Q26.5441 322.15 26.3371 321.759Q26.1301 321.369 25.9425 320.969Q25.7549 320.569 25.5871 320.16Q25.4194 319.751 25.2719 319.335Q25.1244 318.918 24.9975 318.495Q24.8706 318.072 24.7647 317.643Q24.6587 317.214 24.5739 316.78Q24.4891 316.347 24.4257 315.91Q24.3623 315.472 24.3205 315.032Q24.2786 314.593 24.2584 314.151Q24.2381 313.71 24.2396 313.268Q24.241 312.826 24.2641 312.385L31.7169 170.178Q31.74 169.737 31.7848 169.297Q31.8295 168.858 31.8958 168.421Q31.962 167.984 32.0496 167.551Q32.1373 167.118 32.246 166.689Q32.3548 166.261 32.4844 165.839Q32.6141 165.416 32.7643 165.001Q32.9145 164.585 33.0849 164.178Q33.2554 163.77 33.4456 163.371Q33.6358 162.972 33.8454 162.583Q34.0549 162.194 34.2833 161.816Q34.5117 161.438 34.7584 161.071Q35.0051 160.705 35.2694 160.351Q35.5338 159.997 35.8152 159.656Q36.0967 159.315 36.3945 158.989Q36.6923 158.663 37.0057 158.351Q37.3192 158.04 37.6475 157.744Q37.9759 157.448 38.3184 157.169Q38.6608 156.89 39.0166 156.628Q39.3723 156.366 39.7405 156.122Q40.1087 155.877 40.4884 155.652Q40.8682 155.426 41.2585 155.219Q41.6489 155.012 42.0489 154.824Q42.449 154.636 42.8577 154.469Q43.2665 154.301 43.683 154.153Q44.0995 154.006 44.5228 153.879Q44.946 153.752 45.375 153.646Q45.8039 153.54 46.2376 153.455Q46.6712 153.371 47.1085 153.307Q47.5458 153.244 47.9856 153.202Q48.4255 153.16 48.8669 153.14Q49.3083 153.12 49.7501 153.121Q50.192 153.123 50.6332 153.146Z" id="corpo" fill="#000000" fill-rule="evenodd" stroke="none" />
    <path d="M75.4783 438.03C75.4783 412.192 75.7769 386.177 73.3688 360.436C72.4899 351.04 71.4484 341.741 71.4484 332.272C71.4484 329.766 72.3494 306.433 73.369 304.091" id="perna_dir" fill="none" fill-rule="evenodd" stroke="#000000" stroke-width="26" stroke-linecap="round" />
    <path d="M17.5134 437.991C17.5134 431.095 22.9336 423.5 24.1447 416.552C27.6291 396.561 29.2623 376.563 32.5483 356.543C34.2635 346.094 36.3768 333.868 37.3931 323.291C37.4898 322.284 36.7967 306.591 37.9484 306.591" id="perna_esq" fill="none" fill-rule="evenodd" stroke="#000000" stroke-width="26" stroke-linecap="round" />
    <path d="M84.1293 175.953C84.1293 192.201 90.3064 206.72 93.93 222.278C98.196 240.593 100.306 259.496 101.035 278.091" id="braco_dir" fill="none" fill-rule="evenodd" stroke="#000000" stroke-width="18" stroke-linecap="round" />
    <path d="M0 274.574C0 261.775 7.20276 249.991 12.2424 238.551C17.8414 225.841 22.4212 210.476 24.7593 196.728C25.7545 190.876 27.4835 185.387 28.9111 179.667C29.0606 179.068 34.2854 169.591 34.9487 169.591L55.9484 154.591" id="braco_esq" fill="none" fill-rule="evenodd" stroke="#000000" stroke-width="18" stroke-linecap="round" />
    <path d="M32.567 0C32.567 7.71708 37.3117 15.3295 39.6072 22.6293C43.9055 36.2976 46.5846 49.7182 48.8652 63.8473C49.8646 70.0387 50.7599 76.721 50.7599 82.9996C50.7599 85.7982 50.6665 88.9713 51.1082 91.7345C51.3545 93.2748 51.2309 94.8336 51.2596 96.39C51.2719 97.0584 51.5101 97.7588 51.5101 98.4832C51.5101 98.8539 51.5101 99.2246 51.5101 99.5953C51.5101 99.7611 51.5101 100.577 51.5101 100.398" id="Vetor-4" fill="none" fill-rule="evenodd" stroke="#000000" stroke-width="18" stroke-linecap="round" />
  </g>
</svg>